HIERARCHY
ROOT Hips
{
	OFFSET 0.000000 0.000000 0.000000
	CHANNELS 6 Xposition Yposition Zposition Zrotation Yrotation Xrotation 
	JOINT LHipJoint
	{
		OFFSET 0.000000 0.000000 0.000000
		CHANNELS 3 Zrotation Yrotation Xrotation
		JOINT LeftUpLeg
		{
			OFFSET 1.363060 -1.794630 0.839290
			CHANNELS 3 Zrotation Yrotation Xrotation
			JOINT LeftLeg
			{
				OFFSET 2.448110 -6.726130 0.000000
				CHANNELS 3 Zrotation Yrotation Xrotation
				JOINT LeftFoot
				{
					OFFSET 2.562200 -7.039590 0.000000
					CHANNELS 3 Zrotation Yrotation Xrotation
					JOINT LeftToeBase
					{
						OFFSET 0.157640 -0.433110 2.322550
						CHANNELS 3 Zrotation Yrotation Xrotation
						End Site
						{
							OFFSET 0.000000 0.000000 0.000000
						}
					}
				}
			}
		}
	}
	JOINT RHipJoint
	{
		OFFSET 0.000000 0.000000 0.000000
		CHANNELS 3 Zrotation Yrotation Xrotation
		JOINT RightUpLeg
		{
			OFFSET -1.305520 -1.794630 0.839290
			CHANNELS 3 Zrotation Yrotation Xrotation
			JOINT RightLeg
			{
				OFFSET -2.542530 -6.985550 0.000000
				CHANNELS 3 Zrotation Yrotation Xrotation
				JOINT RightFoot
				{
					OFFSET -2.568260 -7.056230 0.000000
					CHANNELS 3 Zrotation Yrotation Xrotation
					JOINT RightToeBase
					{
						OFFSET -0.164730 -0.452590 2.363150
						CHANNELS 3 Zrotation Yrotation Xrotation
						End Site
						{
							OFFSET 0.000000 0.000000 0.000000
						}
					}
				}
			}
		}
	}
}
MOTION
Frames: 28
Frame Time: 0.008333
-1.633617 16.957351 -0.075103 12.599710 76.309545 32.799655 -8.266267 -0.604501 0.043290 -12.444747 -5.033934 -39.542262 -2.552620 0.413044 20.813250 0.159710 0.681629 1.136209 0.411500 -0.000000 -27.637900 11.953383 -1.645330 -2.605888 1.210559 -1.556008 -15.388012 0.614978 -3.704318 45.388111 1.073760 18.829582 8.464277 4.726900 -0.000000 -69.697200
-1.528912 16.977306 -0.084567 11.168981 75.370373 31.314847 -8.276816 -0.605414 -0.153207 -12.467599 -4.577398 -39.106943 -2.519261 0.433239 21.248554 0.261235 1.236730 0.417565 0.460800 0.000000 -28.287200 12.016842 -1.549312 -2.586775 1.055249 -1.075384 -16.491660 0.346252 -3.836514 47.546851 0.930224 18.466421 10.445785 5.325100 -0.000001 -69.345600
-1.424889 16.996947 -0.096290 9.804497 74.478471 29.869292 -8.304013 -0.604459 -0.350104 -12.465218 -4.070760 -38.634051 -2.485937 0.455990 21.614993 0.350704 1.720507 -0.171783 0.493100 -0.000000 -28.817599 12.061363 -1.449977 -2.575510 0.987388 -0.636809 -17.526076 0.095759 -3.946470 49.597219 0.776198 17.967715 12.374774 5.837300 0.000000 -68.470100
-1.321064 17.016081 -0.109340 8.549494 73.642365 28.509489 -8.343459 -0.598639 -0.543428 -12.457185 -3.518584 -38.140606 -2.454896 0.481508 21.929391 0.427426 2.135268 -0.641950 0.513900 -0.000000 -29.213200 12.093394 -1.348690 -2.573537 0.984742 -0.277553 -18.499239 -0.134295 -4.037196 51.534199 0.613668 17.312538 14.212655 6.229700 -0.000000 -67.168600
-1.217123 17.034712 -0.122788 7.430783 72.868190 27.266886 -8.391075 -0.585929 -0.729639 -12.459590 -2.929228 -37.641968 -2.428114 0.509429 22.207700 0.491723 2.484519 -1.014570 0.526500 -0.000000 -29.479000 12.117700 -1.246269 -2.581921 1.026902 -0.024384 -19.421370 -0.343259 -4.111975 53.354852 0.444010 16.474250 15.922497 6.469600 0.000000 -65.584400
-1.112998 17.052946 -0.135837 6.465703 72.160088 26.163184 -8.443021 -0.565222 -0.905460 -12.484100 -2.314817 -37.149739 -2.407108 0.538803 22.462697 0.544738 2.773736 -1.317038 0.532900 0.000000 -29.637299 12.137861 -1.143182 -2.600925 1.095574 0.106832 -20.303483 -0.531665 -4.174144 55.057852 0.267831 15.425833 17.470965 6.527800 -0.000000 -63.906900
-1.008779 17.071024 -0.147891 5.657222 71.517519 25.207294 -8.495935 -0.536380 -1.068897 -12.536908 -1.689457 -36.672340 -2.392767 0.568498 22.702966 0.588197 3.010330 -1.577802 0.533900 -0.000000 -29.721600 12.155840 -1.038753 -2.630948 1.176126 0.112462 -21.157050 -0.700843 -4.226659 56.643479 0.085370 14.146108 18.825370 6.382100 0.000000 -62.321700
-0.904707 17.089152 -0.158532 4.998809 70.937914 24.396590 -8.547267 -0.499977 -1.218245 -12.619664 -1.067612 -36.212999 -2.385202 0.597212 22.933668 0.623925 3.202247 -1.821406 0.529701 -0.000000 -29.771600 12.172610 -0.933101 -2.670559 1.258498 0.001009 -21.989765 -0.852235 -4.272253 58.111543 -0.103280 12.625062 19.954135 6.021000 -0.000000 -61.017300
-0.801139 17.107608 -0.167578 4.475064 70.414738 23.719128 -8.595193 -0.457226 -1.353063 -12.729594 -0.462680 -35.770843 -2.383787 0.623773 23.155096 0.653837 3.359013 -2.064709 0.520900 0.000000 -29.825900 12.188149 -0.825937 -2.718169 1.336572 -0.209663 -22.808213 -0.987326 -4.313377 59.463126 -0.297327 10.871030 20.822897 5.447900 -0.000000 -60.089800
-0.698442 17.126599 -0.175082 4.063233 69.937916 23.155200 -8.638710 -0.409750 -1.474097 -12.860478 0.115151 -35.341886 -2.387307 0.647306 23.364459 0.679679 3.490358 -2.315908 0.508100 0.000000 -29.917901 12.201819 -0.717340 -2.771712 1.408406 -0.494269 -23.615820 -1.107501 -4.352177 60.699402 -0.494952 8.913931 21.397402 4.684700 0.000000 -59.545900
-0.596976 17.146256 -0.181254 3.736367 69.495419 22.680108 -8.677678 -0.359409 -1.583183 -13.003632 0.660059 -34.920658 -2.394170 0.667357 23.556195 0.702811 3.605153 -2.573245 0.492500 -0.000001 -30.072000 12.212585 -0.607704 -2.828905 1.474939 -0.823375 -24.413591 -1.214027 -4.390416 61.821308 -0.692944 6.807203 21.646916 3.773301 -0.000000 -59.298800
-0.497029 17.166662 -0.186407 3.466610 69.073923 22.266582 -8.712723 -0.307904 -1.682897 -13.150240 1.171696 -34.500466 -2.402624 0.683881 23.724281 0.724170 3.711068 -2.827289 0.475699 0.000000 -30.301300 12.219435 -0.498263 -2.886791 1.539100 -1.166553 -25.200172 -1.307879 -4.429379 62.828625 -0.886817 4.626195 21.553094 2.774300 -0.000000 -59.199900
-0.398842 17.187812 -0.190903 3.227301 68.660928 21.887469 -8.745164 -0.256740 -1.776438 -13.291250 1.654860 -34.075140 -2.411009 0.697296 23.862958 0.744128 3.813147 -3.062999 0.459500 0.000000 -30.606801 12.221315 -0.390676 -2.942198 1.605059 -1.494467 -25.971938 -1.389659 -4.469536 63.719106 -1.071050 2.461376 21.116547 1.760300 0.000000 -59.084400
-0.302513 17.209630 -0.195104 2.995382 68.243564 21.519690 -8.776448 -0.207125 -1.867999 -13.419059 2.119594 -33.640666 -2.418095 0.708468 23.968130 0.762619 3.914113 -3.263383 0.445600 -0.000000 -30.978599 12.217503 -0.286426 -2.992275 1.676790 -1.781106 -26.724130 -1.459480 -4.510454 64.488667 -1.239639 0.408391 20.362771 0.804999 0.000000 -58.810600
-0.208045 17.232034 -0.199274 2.754305 67.813677 21.144954 -8.808272 -0.159758 -1.961001 -13.528572 2.577638 -33.194301 -2.423011 0.718373 24.038150 0.779081 4.013470 -3.412269 0.435600 0.000000 -31.399800 12.207530 -0.187515 -3.033892 1.756710 -2.007500 -27.450666 -1.516762 -4.550970 65.131131 -1.386651 -1.443997 19.341550 -0.028501 0.000000 -58.285101
-0.115359 17.254845 -0.203576 2.495549 67.364662 20.753410 -8.841845 -0.114952 -2.059074 -13.616946 3.041891 -32.734846 -2.425469 0.728123 24.073734 0.792778 4.108859 -3.497145 0.430501 0.000000 -31.849600 12.191461 -0.095157 -3.064887 1.845192 -2.161770 -28.145762 -1.560507 -4.589388 65.639694 -1.506659 -3.022810 18.122357 -0.696900 0.000000 -57.466600
-0.024294 17.277909 -0.208044 2.219358 66.894673 20.342374 -8.878204 -0.072311 -2.164190 -13.684476 3.523586 -32.262653 -2.425673 0.738660 24.078266 0.802932 4.196244 -3.511727 0.430800 -0.000000 -32.304300 12.169663 -0.010623 -3.083107 1.939887 -2.240517 -28.803287 -1.589576 -4.623759 66.008198 -1.595313 -4.278244 16.785660 -1.181200 -0.000001 -56.372100
0.065329 17.301078 -0.212534 1.933718 66.404724 19.917516 -8.917574 -0.031102 -2.277461 -13.733955 4.029939 -31.778369 -2.424226 0.750667 24.056520 0.808956 4.271317 -3.455914 0.436500 -0.000000 -32.746400 12.142961 0.065773 -3.087699 2.035731 -2.248558 -29.418853 -1.602945 -4.652315 66.231258 -1.649718 -5.185321 15.413688 -1.484800 -0.000000 -55.055600
0.153843 17.324269 -0.216882 1.647063 65.898867 19.487946 -8.959272 0.008954 -2.399839 -13.768525 4.563085 -31.283735 -2.421902 0.764499 24.013058 0.810590 4.330420 -3.335184 0.446900 0.000000 -33.169801 12.112420 0.134796 -3.080171 2.127682 -2.197189 -29.989942 -1.599883 -4.673902 66.305291 -1.668631 -5.742373 14.079266 -1.627901 0.000000 -53.581900
0.241382 17.347346 -0.220775 1.375824 65.383849 19.065581 -9.003023 0.049432 -2.528775 -13.793566 5.120960 -30.779512 -2.419552 0.780154 23.954785 0.807831 4.370167 -3.161448 0.460500 -0.000000 -33.569800 12.079026 0.196517 -3.060388 2.208686 -2.102574 -30.514474 -1.580472 -4.687490 66.230106 -1.652937 -5.968326 12.842671 -1.640900 0.000000 -52.052500
0.328285 17.370296 -0.223933 1.128683 64.867034 18.662004 -9.047333 0.090476 -2.663056 -13.812270 5.695209 -30.268015 -2.417803 0.797362 23.886254 0.801208 4.390130 -2.948667 0.475800 0.000000 -33.958200 12.043806 0.252657 -3.031651 2.274861 -1.982266 -30.993109 -1.545061 -4.692842 66.006354 -1.605389 -5.897891 11.744127 -1.556400 0.000000 -50.551600
0.414628 17.393057 -0.226037 0.917073 64.356304 18.286286 -9.091600 0.133323 -2.798369 -13.828526 6.275075 -29.750015 -2.417004 0.815575 23.813012 0.791409 4.390923 -2.712769 0.491500 0.000000 -34.348000 12.007364 0.303774 -2.994925 2.322630 -1.853673 -31.426784 -1.494759 -4.689743 65.638548 -1.530640 -5.577836 10.805144 -1.404900 0.000000 -49.171400
0.500638 17.415631 -0.226891 0.743245 63.858289 17.943522 -9.134806 0.177958 -2.931654 -13.843244 6.846997 -29.227737 -2.417110 0.834213 23.738704 0.779413 4.375578 -2.468305 0.506100 -0.000000 -34.758799 11.969925 0.351299 -2.952837 2.352695 -1.730469 -31.818284 -1.430817 -4.678333 65.131866 -1.434657 -5.062284 10.029103 -1.212400 0.000000 -47.990501
0.586391 17.437988 -0.226350 0.607410 63.378300 17.634884 -9.176527 0.224571 -3.058921 -13.856817 7.397543 -28.702837 -2.417718 0.852608 23.666144 0.766289 4.348813 -2.227305 0.519200 0.000000 -35.208300 11.931270 0.395866 -2.906612 2.367609 -1.622232 -32.170018 -1.354747 -4.658744 64.493539 -1.324153 -4.408943 9.403301 -0.999300 -0.000000 -47.075300
0.671972 17.460123 -0.224381 0.502996 62.918852 17.358075 -9.216217 0.272397 -3.177833 -13.867007 7.914011 -28.177317 -2.418044 0.870265 23.596259 0.753239 4.317500 -1.996869 0.530600 0.000000 -35.715400 11.890864 0.438609 -2.858270 2.373248 -1.533190 -32.485181 -1.267932 -4.631218 63.730315 -1.205890 -3.675068 8.904681 -0.781300 -0.000000 -46.470900
0.757419 17.481967 -0.220979 0.423132 62.480456 17.107624 -9.254340 0.321207 -3.285365 -13.871704 8.387936 -27.652847 -2.417209 0.886760 23.530376 0.741183 4.287521 -1.781187 0.540700 0.000000 -36.286100 11.847694 0.479246 -2.807501 2.376223 -1.462612 -32.765662 -1.171806 -4.595830 62.850660 -1.086010 -2.914211 8.500947 -0.570600 0.000000 -46.191800
0.842729 17.503437 -0.216222 0.357991 62.061166 16.876108 -9.291202 0.370161 -3.380346 -13.868429 8.814525 -27.132049 -2.414350 0.901882 23.468041 0.730947 4.265101 -1.579645 0.550400 -0.000000 -36.922100 11.800703 0.517803 -2.754295 2.383857 -1.405597 -33.013636 -1.067547 -4.552720 61.862125 -0.969613 -2.173012 8.158067 -0.376901 -0.000000 -46.214999
0.927922 17.524398 -0.210234 0.296989 61.657299 16.655904 -9.327366 0.418444 -3.462694 -13.854106 9.193525 -26.616859 -2.408710 0.915618 23.408672 0.723089 4.255134 -1.388909 0.560600 -0.000000 -37.614600 11.748811 0.553939 -2.698144 2.403534 -1.354023 -33.230403 -0.956082 -4.501969 60.771472 -0.860514 -1.489348 7.842287 -0.207600 0.000000 -46.478800
